<!-- <svg width="680" height="680" viewBox="0 0 680 680" fill="none" xmlns="http://www.w3.org/2000/svg">
<line x1="240.5" y1="2.18557e-08" x2="240.5" y2="680" stroke="#0577A6"/>
<line x1="480.5" y1="2.18557e-08" x2="480.5" y2="680" stroke="#0577A6"/>
<line x1="120.5" y1="2.18557e-08" x2="120.5" y2="680" stroke="#0577A6"/>
<line x1="360.5" y1="2.18557e-08" x2="360.5" y2="680" stroke="#0577A6"/>
<line x1="600.5" y1="2.18557e-08" x2="600.5" y2="680" stroke="#0577A6"/>
<line x1="40.5" y1="2.18557e-08" x2="40.5" y2="680" stroke="#0577A6"/>
<line x1="280.5" y1="2.18557e-08" x2="280.5" y2="680" stroke="#0577A6"/>
<line x1="520.5" y1="2.18557e-08" x2="520.5" y2="680" stroke="#0577A6"/>
<line x1="160.5" y1="2.18557e-08" x2="160.5" y2="680" stroke="#0577A6"/>
<line x1="400.5" y1="2.18557e-08" x2="400.5" y2="680" stroke="#0577A6"/>
<line x1="640.5" y1="2.18557e-08" x2="640.5" y2="680" stroke="#0577A6"/>
<line x1="80.5" y1="2.18557e-08" x2="80.5" y2="680" stroke="#0577A6"/>
<line x1="320.5" y1="2.18557e-08" x2="320.5" y2="680" stroke="#0577A6"/>
<line x1="560.5" y1="2.18557e-08" x2="560.5" y2="680" stroke="#0577A6"/>
<line x1="200.5" y1="2.18557e-08" x2="200.5" y2="680" stroke="#0577A6"/>
<line x1="440.5" y1="2.18557e-08" x2="440.5" y2="680" stroke="#0577A6"/>
<line x1="680" y1="240.5" x2="-4.37113e-08" y2="240.5" stroke="#0577A6"/>
<line x1="680" y1="480.5" x2="-4.37113e-08" y2="480.5" stroke="#0577A6"/>
<line x1="680" y1="120.5" x2="-4.37113e-08" y2="120.5" stroke="#0577A6"/>
<line x1="680" y1="360.5" x2="-4.37113e-08" y2="360.5" stroke="#0577A6"/>
<line x1="680" y1="600.5" x2="-4.37113e-08" y2="600.5" stroke="#0577A6"/>
<line x1="680" y1="40.5" x2="-4.37113e-08" y2="40.4999" stroke="#0577A6"/>
<line x1="680" y1="280.5" x2="-4.37113e-08" y2="280.5" stroke="#0577A6"/>
<line x1="680" y1="520.5" x2="-4.37113e-08" y2="520.5" stroke="#0577A6"/>
<line x1="680" y1="160.5" x2="-4.37113e-08" y2="160.5" stroke="#0577A6"/>
<line x1="680" y1="400.5" x2="-4.37113e-08" y2="400.5" stroke="#0577A6"/>
<line x1="680" y1="640.5" x2="-4.37113e-08" y2="640.5" stroke="#0577A6"/>
<line x1="680" y1="80.5" x2="-4.37113e-08" y2="80.4999" stroke="#0577A6"/>
<line x1="680" y1="320.5" x2="-4.37113e-08" y2="320.5" stroke="#0577A6"/>
<line x1="680" y1="560.5" x2="-4.37113e-08" y2="560.5" stroke="#0577A6"/>
<line x1="680" y1="200.5" x2="-4.37113e-08" y2="200.5" stroke="#0577A6"/>
<line x1="680" y1="440.5" x2="-4.37113e-08" y2="440.5" stroke="#0577A6"/>
</svg> -->

<svg width="680" height="680" viewBox="0 0 680 680" fill="none" xmlns="http://www.w3.org/2000/svg">
<line x1="439.5" y1="680" x2="439.5" y2="-6.55671e-08" stroke="url(#paint0_linear_0_1)"/>
<line x1="199.5" y1="680" x2="199.5" y2="-6.55671e-08" stroke="url(#paint1_linear_0_1)"/>
<line x1="559.5" y1="680" x2="559.5" y2="-6.55671e-08" stroke="url(#paint2_linear_0_1)"/>
<line x1="319.5" y1="680" x2="319.5" y2="-6.55671e-08" stroke="url(#paint3_linear_0_1)"/>
<line x1="79.5" y1="680" x2="79.5001" y2="-6.55671e-08" stroke="url(#paint4_linear_0_1)"/>
<line x1="639.5" y1="680" x2="639.5" y2="-6.55671e-08" stroke="url(#paint5_linear_0_1)"/>
<line x1="399.5" y1="680" x2="399.5" y2="-6.55671e-08" stroke="url(#paint6_linear_0_1)"/>
<line x1="159.5" y1="680" x2="159.5" y2="-6.55671e-08" stroke="url(#paint7_linear_0_1)"/>
<line x1="519.5" y1="680" x2="519.5" y2="-6.55671e-08" stroke="url(#paint8_linear_0_1)"/>
<line x1="279.5" y1="680" x2="279.5" y2="-6.55671e-08" stroke="url(#paint9_linear_0_1)"/>
<line x1="39.5" y1="680" x2="39.5001" y2="-6.55671e-08" stroke="url(#paint10_linear_0_1)"/>
<line x1="599.5" y1="680" x2="599.5" y2="-6.55671e-08" stroke="url(#paint11_linear_0_1)"/>
<line x1="359.5" y1="680" x2="359.5" y2="-6.55671e-08" stroke="url(#paint12_linear_0_1)"/>
<line x1="119.5" y1="680" x2="119.5" y2="-6.55671e-08" stroke="url(#paint13_linear_0_1)"/>
<line x1="479.5" y1="680" x2="479.5" y2="-6.55671e-08" stroke="url(#paint14_linear_0_1)"/>
<line x1="239.5" y1="680" x2="239.5" y2="-6.55671e-08" stroke="url(#paint15_linear_0_1)"/>
<line x1="8.74228e-08" y1="439.5" x2="680" y2="439.5" stroke="url(#paint16_linear_0_1)"/>
<line x1="8.74228e-08" y1="199.5" x2="680" y2="199.5" stroke="url(#paint17_linear_0_1)"/>
<line x1="8.74228e-08" y1="559.5" x2="680" y2="559.5" stroke="url(#paint18_linear_0_1)"/>
<line x1="8.74228e-08" y1="319.5" x2="680" y2="319.5" stroke="url(#paint19_linear_0_1)"/>
<line x1="8.74228e-08" y1="79.4999" x2="680" y2="79.5" stroke="url(#paint20_linear_0_1)"/>
<line x1="8.74228e-08" y1="639.5" x2="680" y2="639.5" stroke="url(#paint21_linear_0_1)"/>
<line x1="8.74228e-08" y1="399.5" x2="680" y2="399.5" stroke="url(#paint22_linear_0_1)"/>
<line x1="8.74228e-08" y1="159.5" x2="680" y2="159.5" stroke="url(#paint23_linear_0_1)"/>
<line x1="8.74228e-08" y1="519.5" x2="680" y2="519.5" stroke="url(#paint24_linear_0_1)"/>
<line x1="8.74228e-08" y1="279.5" x2="680" y2="279.5" stroke="url(#paint25_linear_0_1)"/>
<line x1="8.74228e-08" y1="39.4999" x2="680" y2="39.5" stroke="url(#paint26_linear_0_1)"/>
<line x1="8.74228e-08" y1="599.5" x2="680" y2="599.5" stroke="url(#paint27_linear_0_1)"/>
<line x1="8.74228e-08" y1="359.5" x2="680" y2="359.5" stroke="url(#paint28_linear_0_1)"/>
<line x1="8.74228e-08" y1="119.5" x2="680" y2="119.5" stroke="url(#paint29_linear_0_1)"/>
<line x1="8.74228e-08" y1="479.5" x2="680" y2="479.5" stroke="url(#paint30_linear_0_1)"/>
<line x1="8.74228e-08" y1="239.5" x2="680" y2="239.5" stroke="url(#paint31_linear_0_1)"/>
<defs>
<linearGradient id="paint0_linear_0_1" x1="440.5" y1="680" x2="440.5" y2="6.55671e-08" gradientUnits="userSpaceOnUse">
<stop stop-color="white" stop-opacity="0"/>
<stop offset="0.5" stop-color="#035273"/>
<stop offset="1" stop-color="#022E40" stop-opacity="0"/>
</linearGradient>
<linearGradient id="paint1_linear_0_1" x1="200.5" y1="680" x2="200.5" y2="6.55671e-08" gradientUnits="userSpaceOnUse">
<stop stop-color="white" stop-opacity="0"/>
<stop offset="0.5" stop-color="#035273"/>
<stop offset="1" stop-color="#022E40" stop-opacity="0"/>
</linearGradient>
<linearGradient id="paint2_linear_0_1" x1="560.5" y1="680" x2="560.5" y2="6.55671e-08" gradientUnits="userSpaceOnUse">
<stop stop-color="white" stop-opacity="0"/>
<stop offset="0.5" stop-color="#035273"/>
<stop offset="1" stop-color="#022E40" stop-opacity="0"/>
</linearGradient>
<linearGradient id="paint3_linear_0_1" x1="320.5" y1="680" x2="320.5" y2="6.55671e-08" gradientUnits="userSpaceOnUse">
<stop stop-color="white" stop-opacity="0"/>
<stop offset="0.5" stop-color="#035273"/>
<stop offset="1" stop-color="#022E40" stop-opacity="0"/>
</linearGradient>
<linearGradient id="paint4_linear_0_1" x1="80.5" y1="680" x2="80.5001" y2="6.55671e-08" gradientUnits="userSpaceOnUse">
<stop stop-color="white" stop-opacity="0"/>
<stop offset="0.5" stop-color="#035273"/>
<stop offset="1" stop-color="#022E40" stop-opacity="0"/>
</linearGradient>
<linearGradient id="paint5_linear_0_1" x1="640.5" y1="680" x2="640.5" y2="6.55671e-08" gradientUnits="userSpaceOnUse">
<stop stop-color="white" stop-opacity="0"/>
<stop offset="0.235" stop-color="#035273"/>
<stop offset="1" stop-color="#022E40" stop-opacity="0"/>
</linearGradient>
<linearGradient id="paint6_linear_0_1" x1="400.5" y1="680" x2="400.5" y2="6.55671e-08" gradientUnits="userSpaceOnUse">
<stop stop-color="white" stop-opacity="0"/>
<stop offset="0.5" stop-color="#035273"/>
<stop offset="1" stop-color="#022E40" stop-opacity="0"/>
</linearGradient>
<linearGradient id="paint7_linear_0_1" x1="160.5" y1="680" x2="160.5" y2="6.55671e-08" gradientUnits="userSpaceOnUse">
<stop stop-color="white" stop-opacity="0"/>
<stop offset="0.5" stop-color="#035273"/>
<stop offset="1" stop-color="#022E40" stop-opacity="0"/>
</linearGradient>
<linearGradient id="paint8_linear_0_1" x1="520.5" y1="680" x2="520.5" y2="6.55671e-08" gradientUnits="userSpaceOnUse">
<stop stop-color="white" stop-opacity="0"/>
<stop offset="0.5" stop-color="#035273"/>
<stop offset="1" stop-color="#022E40" stop-opacity="0"/>
</linearGradient>
<linearGradient id="paint9_linear_0_1" x1="280.5" y1="680" x2="280.5" y2="6.55671e-08" gradientUnits="userSpaceOnUse">
<stop stop-color="white" stop-opacity="0"/>
<stop offset="0.5" stop-color="#035273"/>
<stop offset="1" stop-color="#022E40" stop-opacity="0"/>
</linearGradient>
<linearGradient id="paint10_linear_0_1" x1="40.5" y1="680" x2="40.5001" y2="6.55671e-08" gradientUnits="userSpaceOnUse">
<stop stop-color="white" stop-opacity="0"/>
<stop offset="0.5" stop-color="#035273"/>
<stop offset="1" stop-color="#022E40" stop-opacity="0"/>
</linearGradient>
<linearGradient id="paint11_linear_0_1" x1="600.5" y1="680" x2="600.5" y2="6.55671e-08" gradientUnits="userSpaceOnUse">
<stop stop-color="white" stop-opacity="0"/>
<stop offset="0.5" stop-color="#035273"/>
<stop offset="1" stop-color="#022E40" stop-opacity="0"/>
</linearGradient>
<linearGradient id="paint12_linear_0_1" x1="360.5" y1="680" x2="360.5" y2="6.55671e-08" gradientUnits="userSpaceOnUse">
<stop stop-color="white" stop-opacity="0"/>
<stop offset="0.5" stop-color="#035273"/>
<stop offset="1" stop-color="#022E40" stop-opacity="0"/>
</linearGradient>
<linearGradient id="paint13_linear_0_1" x1="120.5" y1="680" x2="120.5" y2="6.55671e-08" gradientUnits="userSpaceOnUse">
<stop stop-color="white" stop-opacity="0"/>
<stop offset="0.5" stop-color="#035273"/>
<stop offset="1" stop-color="#022E40" stop-opacity="0"/>
</linearGradient>
<linearGradient id="paint14_linear_0_1" x1="480.5" y1="680" x2="480.5" y2="6.55671e-08" gradientUnits="userSpaceOnUse">
<stop stop-color="white" stop-opacity="0"/>
<stop offset="0.5" stop-color="#035273"/>
<stop offset="1" stop-color="#022E40" stop-opacity="0"/>
</linearGradient>
<linearGradient id="paint15_linear_0_1" x1="240.5" y1="680" x2="240.5" y2="6.55671e-08" gradientUnits="userSpaceOnUse">
<stop stop-color="white" stop-opacity="0"/>
<stop offset="0.5" stop-color="#035273"/>
<stop offset="1" stop-color="#022E40" stop-opacity="0"/>
</linearGradient>
<linearGradient id="paint16_linear_0_1" x1="-8.74228e-08" y1="440.5" x2="680" y2="440.5" gradientUnits="userSpaceOnUse">
<stop stop-color="white" stop-opacity="0"/>
<stop offset="0.5" stop-color="#035273"/>
<stop offset="1" stop-color="#022E40" stop-opacity="0"/>
</linearGradient>
<linearGradient id="paint17_linear_0_1" x1="-8.74228e-08" y1="200.5" x2="680" y2="200.5" gradientUnits="userSpaceOnUse">
<stop stop-color="white" stop-opacity="0"/>
<stop offset="0.5" stop-color="#035273"/>
<stop offset="1" stop-color="#022E40" stop-opacity="0"/>
</linearGradient>
<linearGradient id="paint18_linear_0_1" x1="-8.74228e-08" y1="560.5" x2="680" y2="560.5" gradientUnits="userSpaceOnUse">
<stop stop-color="white" stop-opacity="0"/>
<stop offset="0.5" stop-color="#035273"/>
<stop offset="1" stop-color="#022E40" stop-opacity="0"/>
</linearGradient>
<linearGradient id="paint19_linear_0_1" x1="-8.74228e-08" y1="320.5" x2="680" y2="320.5" gradientUnits="userSpaceOnUse">
<stop stop-color="white" stop-opacity="0"/>
<stop offset="0.5" stop-color="#035273"/>
<stop offset="1" stop-color="#022E40" stop-opacity="0"/>
</linearGradient>
<linearGradient id="paint20_linear_0_1" x1="-8.74228e-08" y1="80.4999" x2="680" y2="80.5" gradientUnits="userSpaceOnUse">
<stop stop-color="white" stop-opacity="0"/>
<stop offset="0.5" stop-color="#035273"/>
<stop offset="1" stop-color="#022E40" stop-opacity="0"/>
</linearGradient>
<linearGradient id="paint21_linear_0_1" x1="-8.74228e-08" y1="640.5" x2="680" y2="640.5" gradientUnits="userSpaceOnUse">
<stop stop-color="white" stop-opacity="0"/>
<stop offset="0.235" stop-color="#035273"/>
<stop offset="1" stop-color="#022E40" stop-opacity="0"/>
</linearGradient>
<linearGradient id="paint22_linear_0_1" x1="-8.74228e-08" y1="400.5" x2="680" y2="400.5" gradientUnits="userSpaceOnUse">
<stop stop-color="white" stop-opacity="0"/>
<stop offset="0.5" stop-color="#035273"/>
<stop offset="1" stop-color="#022E40" stop-opacity="0"/>
</linearGradient>
<linearGradient id="paint23_linear_0_1" x1="-8.74228e-08" y1="160.5" x2="680" y2="160.5" gradientUnits="userSpaceOnUse">
<stop stop-color="white" stop-opacity="0"/>
<stop offset="0.5" stop-color="#035273"/>
<stop offset="1" stop-color="#022E40" stop-opacity="0"/>
</linearGradient>
<linearGradient id="paint24_linear_0_1" x1="-8.74228e-08" y1="520.5" x2="680" y2="520.5" gradientUnits="userSpaceOnUse">
<stop stop-color="white" stop-opacity="0"/>
<stop offset="0.5" stop-color="#035273"/>
<stop offset="1" stop-color="#022E40" stop-opacity="0"/>
</linearGradient>
<linearGradient id="paint25_linear_0_1" x1="-8.74228e-08" y1="280.5" x2="680" y2="280.5" gradientUnits="userSpaceOnUse">
<stop stop-color="white" stop-opacity="0"/>
<stop offset="0.5" stop-color="#035273"/>
<stop offset="1" stop-color="#022E40" stop-opacity="0"/>
</linearGradient>
<linearGradient id="paint26_linear_0_1" x1="-8.74228e-08" y1="40.4999" x2="680" y2="40.5" gradientUnits="userSpaceOnUse">
<stop stop-color="white" stop-opacity="0"/>
<stop offset="0.235" stop-color="#035273"/>
<stop offset="1" stop-color="#022E40" stop-opacity="0"/>
</linearGradient>
<linearGradient id="paint27_linear_0_1" x1="-8.74228e-08" y1="600.5" x2="680" y2="600.5" gradientUnits="userSpaceOnUse">
<stop stop-color="white" stop-opacity="0"/>
<stop offset="0.5" stop-color="#035273"/>
<stop offset="1" stop-color="#022E40" stop-opacity="0"/>
</linearGradient>
<linearGradient id="paint28_linear_0_1" x1="-8.74228e-08" y1="360.5" x2="680" y2="360.5" gradientUnits="userSpaceOnUse">
<stop stop-color="white" stop-opacity="0"/>
<stop offset="0.5" stop-color="#035273"/>
<stop offset="1" stop-color="#022E40" stop-opacity="0"/>
</linearGradient>
<linearGradient id="paint29_linear_0_1" x1="-8.74228e-08" y1="120.5" x2="680" y2="120.5" gradientUnits="userSpaceOnUse">
<stop stop-color="white" stop-opacity="0"/>
<stop offset="0.5" stop-color="#035273"/>
<stop offset="1" stop-color="#022E40" stop-opacity="0"/>
</linearGradient>
<linearGradient id="paint30_linear_0_1" x1="-8.74228e-08" y1="480.5" x2="680" y2="480.5" gradientUnits="userSpaceOnUse">
<stop stop-color="white" stop-opacity="0"/>
<stop offset="0.5" stop-color="#035273"/>
<stop offset="1" stop-color="#022E40" stop-opacity="0"/>
</linearGradient>
<linearGradient id="paint31_linear_0_1" x1="-8.74228e-08" y1="240.5" x2="680" y2="240.5" gradientUnits="userSpaceOnUse">
<stop stop-color="white" stop-opacity="0"/>
<stop offset="0.5" stop-color="#035273"/>
<stop offset="1" stop-color="#022E40" stop-opacity="0"/>
</linearGradient>
</defs>
</svg>
