<?xml version="1.0" encoding="utf-8"?>
<!-- Generator: Adobe Illustrator 22.0.1, SVG Export Plug-In . SVG Version: 6.00 Build 0)  -->
<svg version="1.1" id="Layer_1" xmlns="http://www.w3.org/2000/svg" xmlns:xlink="http://www.w3.org/1999/xlink" x="0px" y="0px"
	 viewBox="0 0 180.6 40" style="enable-background:new 0 0 180.6 40;" xml:space="preserve">
<style type="text/css">
	.st0{fill:#48B8E7;}
	.st1{fill:#465062;}
	.st2{fill:none;}
	.st3{clip-path:url(#SVGID_2_);}
</style>
<path class="st0" d="M33,2.2c0.8,0,1.5-0.5,1.5-1.1S33.8,0,33,0s-1.5,0.5-1.5,1.1S32.2,2.2,33,2.2"/>
<path class="st0" d="M33.8,10.1C33.4,6.9,33,7.3,33,7.3s-0.4-0.4-0.7,2.8C31.9,14,31.6,21.9,30,25.2c-2.7,5.6-8.1,5.4-8.1,5.8
	c0,1.6,5,3,11.1,3s11.1-1.3,11.1-3c0-0.4-5.1-0.1-7.8-5.8C34.8,21.9,34.2,14,33.8,10.1"/>
<path class="st0" d="M21.9,31c0,1.6,5,3,11.1,3s11.1-1.3,11.1-3c0-0.4-5.1-0.1-7.8-5.8c-1.6-3.3-2.1-11.2-2.5-15.1
	c-0.3-2.6-0.6-2.9-0.7-2.9c0,0,0,0,0,0c0,0,0,0,0,0c-0.1,0-0.4,0.3-0.7,2.9C31.9,14,31.6,21.9,30,25.2C27.3,30.8,21.9,30.6,21.9,31"
	/>
<path class="st0" d="M15.6,31.4c0,2.5,7.8,4.5,17.4,4.5s17.4-2,17.4-4.5c0-2.1-5.3-3.8-12.6-4.3c0.3,0.4,0.6,0.7,0.9,1
	c4.8,0.6,8.2,1.8,8.2,3.3c0,2-6.2,3.6-13.9,3.6s-13.9-1.6-13.9-3.6c0-1.5,3.5-2.8,8.5-3.3c0.3-0.3,0.7-0.7,1-1
	C21.1,27.6,15.6,29.3,15.6,31.4"/>
<path class="st0" d="M35.8,22.9c0.1,0.3,0.2,0.6,0.3,0.9c14.9,0.4,26.5,3.7,26.5,7.6c0,4.2-13.3,7.7-29.6,7.7S3.5,35.6,3.5,31.4
	c0-4,11.8-7.3,26.8-7.6c0.1-0.3,0.2-0.6,0.2-0.9c-17,0.3-30.5,4-30.5,8.5C0,36.1,14.8,40,33,40s33-3.8,33-8.6
	C66,26.9,52.7,23.3,35.8,22.9"/>
<path class="st0" d="M7.8,31.4c0,3.6,11.3,6.5,25.2,6.5s25.2-2.9,25.2-6.5c0-3.3-9.5-6-21.7-6.5c0,0.1,0,0.1,0.1,0.2
	c0.1,0.3,0.3,0.5,0.4,0.8c10.1,0.5,17.8,2.8,17.8,5.5C54.8,34.5,45,37,33,37s-21.7-2.5-21.7-5.6c0-2.8,7.8-5.1,18.1-5.5
	c0.1-0.2,0.3-0.5,0.4-0.8c0-0.1,0-0.1,0.1-0.2C17.4,25.3,7.8,28.1,7.8,31.4"/>
<path class="st1" d="M74.9,15.9v-12h1.9v10.3h6.4v1.7H74.9z"/>
<path class="st2" d="M0,40h180.6V0H0V40z"/>
<g>
	<defs>
		<rect id="SVGID_1_" width="180.6" height="40"/>
	</defs>
	<clipPath id="SVGID_2_">
		<use xlink:href="#SVGID_1_"  style="overflow:visible;"/>
	</clipPath>
	<g class="st3">
		<path class="st1" d="M94.9,15.9h1.9v-12h-1.9V15.9z"/>
		<path class="st1" d="M114.6,16c-0.8,0-1.6-0.2-2.3-0.5c-0.7-0.3-1.3-0.8-1.8-1.4c-0.5-0.6-0.9-1.2-1.2-1.9
			c-0.3-0.7-0.4-1.5-0.4-2.2c0-0.8,0.1-1.6,0.4-2.3c0.3-0.7,0.7-1.4,1.2-1.9c0.5-0.6,1.1-1,1.8-1.3c0.7-0.3,1.5-0.5,2.3-0.5
			c0.8,0,1.6,0.2,2.3,0.5c0.7,0.3,1.3,0.8,1.8,1.4c0.5,0.6,0.9,1.2,1.2,2c0.3,0.7,0.4,1.5,0.4,2.2c0,0.8-0.1,1.5-0.4,2.3
			c-0.3,0.7-0.7,1.4-1.2,1.9l1.6,1.8h-1.8l-0.8-0.9c-0.5,0.3-0.9,0.5-1.5,0.7C115.7,15.9,115.2,16,114.6,16z M114.6,5.5
			c-0.6,0-1.1,0.1-1.6,0.4c-0.5,0.2-0.9,0.6-1.2,1c-0.3,0.4-0.6,0.9-0.8,1.4c-0.2,0.5-0.3,1.1-0.3,1.6c0,0.6,0.1,1.1,0.3,1.6
			c0.2,0.5,0.4,1,0.8,1.4c0.3,0.4,0.7,0.7,1.2,1c0.5,0.2,1,0.4,1.6,0.4c0.4,0,0.7,0,1-0.1c0.3-0.1,0.6-0.2,0.9-0.4l-1.7-2h1.8l0.9,1
			c0.3-0.4,0.5-0.8,0.7-1.3c0.1-0.5,0.2-1,0.2-1.5c0-0.6-0.1-1.1-0.3-1.6c-0.2-0.5-0.4-1-0.8-1.4c-0.3-0.4-0.7-0.7-1.2-1
			C115.7,5.6,115.2,5.5,114.6,5.5z"/>
		<path class="st1" d="M137.4,14.3c0.5,0,1.1-0.1,1.6-0.4c0.4-0.2,0.7-0.6,1-1c0.3-0.4,0.4-0.9,0.5-1.4c0.1-0.5,0.2-1,0.2-1.6V3.9
			h1.9V10c0,0.8-0.1,1.6-0.3,2.3c-0.2,0.7-0.5,1.3-0.9,1.9c-0.4,0.6-1,1-1.6,1.3c-0.7,0.3-1.6,0.5-2.4,0.5c-0.8,0-1.7-0.1-2.4-0.5
			c-0.6-0.3-1.2-0.8-1.6-1.3c-0.4-0.6-0.7-1.2-0.9-1.9c-0.2-0.7-0.3-1.5-0.3-2.2V3.9h1.9V10c0,0.5,0.1,1.1,0.2,1.6
			c0.1,0.5,0.3,0.9,0.5,1.4c0.3,0.4,0.6,0.7,1,1C136.3,14.1,136.9,14.3,137.4,14.3"/>
		<path class="st1" d="M155.2,15.9h1.9v-12h-1.9V15.9z"/>
		<path class="st1" d="M174.2,15.9H170v-12h4.3c0.9,0,1.7,0.1,2.5,0.5c0.7,0.3,1.3,0.7,1.8,1.3c0.5,0.6,0.9,1.2,1.1,1.9
			c0.3,0.7,0.4,1.5,0.4,2.3c0,0.8-0.1,1.7-0.4,2.5c-0.3,0.7-0.7,1.3-1.2,1.9c-0.5,0.5-1.1,0.9-1.8,1.2
			C175.9,15.7,175,15.9,174.2,15.9z M171.9,5.5v8.7h2.4c0.6,0,1.1-0.1,1.7-0.3c0.5-0.2,0.9-0.5,1.2-0.9c0.3-0.4,0.6-0.9,0.8-1.4
			c0.2-0.6,0.3-1.1,0.3-1.7c0-0.6-0.1-1.2-0.3-1.7c-0.2-0.5-0.4-1-0.8-1.4c-0.3-0.4-0.8-0.7-1.2-0.9c-0.5-0.2-1.1-0.3-1.7-0.3
			L171.9,5.5z"/>
		<path class="st1" d="M74.9,35.2h0.5V25h-0.5V35.2z"/>
		<path class="st1" d="M79.2,25.9v9.3h-0.5V25h0.4l7.6,9.5V25h0.5v10.3h-0.5L79.2,25.9z"/>
		<path class="st1" d="M96.4,26.5c-0.3-0.4-0.8-0.7-1.2-0.9c-0.5-0.2-1.1-0.3-1.6-0.3c-0.8-0.1-1.7,0.1-2.4,0.6
			c-0.5,0.4-0.8,1-0.7,1.7c0,0.3,0.1,0.6,0.2,0.9c0.1,0.2,0.3,0.5,0.6,0.6c0.3,0.2,0.6,0.3,1,0.4c0.4,0.1,0.9,0.2,1.4,0.3
			c0.6,0.1,1.1,0.2,1.5,0.4c0.4,0.1,0.8,0.3,1.2,0.5c0.3,0.2,0.6,0.5,0.7,0.8c0.2,0.4,0.3,0.7,0.3,1.1c0,0.4-0.1,0.8-0.3,1.1
			c-0.2,0.3-0.4,0.6-0.7,0.8c-0.3,0.2-0.7,0.4-1.2,0.5c-0.5,0.1-1,0.2-1.5,0.2c-0.8,0-1.5-0.1-2.2-0.4c-0.7-0.3-1.3-0.7-1.8-1.2
			l0.3-0.4c0.5,0.5,1,0.9,1.7,1.1c0.7,0.3,1.4,0.4,2.1,0.4c0.8,0,1.6-0.1,2.3-0.5c0.6-0.3,0.9-1,0.8-1.6c0-0.3-0.1-0.6-0.2-0.9
			c-0.1-0.3-0.4-0.5-0.6-0.7c-0.3-0.2-0.7-0.4-1-0.5c-0.4-0.1-0.9-0.3-1.5-0.4c-0.6-0.1-1.1-0.2-1.5-0.4c-0.4-0.1-0.7-0.3-1.1-0.5
			c-0.3-0.2-0.5-0.4-0.7-0.7c-0.2-0.3-0.2-0.7-0.2-1.1c0-0.4,0.1-0.8,0.3-1.2c0.2-0.3,0.4-0.7,0.7-0.9c0.3-0.3,0.7-0.4,1.1-0.5
			c0.5-0.1,1-0.2,1.5-0.2c0.6,0,1.2,0.1,1.8,0.3c0.5,0.2,1,0.5,1.4,0.9L96.4,26.5z"/>
		<path class="st1" d="M106.7,25.4h-3.8v9.8h-0.5v-9.8h-3.9V25h8.2V25.4z"/>
		<path class="st1" d="M109.3,35.2h-0.5V25h4.2c0.4,0,0.8,0.1,1.2,0.3c0.4,0.2,0.7,0.4,0.9,0.7c0.3,0.3,0.5,0.6,0.6,1
			c0.1,0.4,0.2,0.8,0.2,1.1c0,0.4-0.1,0.8-0.2,1.1c-0.1,0.3-0.3,0.7-0.5,1c-0.2,0.3-0.5,0.5-0.8,0.7c-0.3,0.2-0.7,0.3-1,0.3l2.6,4
			h-0.6l-2.5-4h-3.6V35.2L109.3,35.2z M109.3,25.4v5.4h3.8c0.3,0,0.7-0.1,1-0.2c0.3-0.1,0.5-0.4,0.7-0.6c0.2-0.3,0.4-0.6,0.5-0.9
			c0.1-0.3,0.2-0.7,0.2-1c0-0.3-0.1-0.7-0.2-1c-0.1-0.3-0.3-0.6-0.5-0.9c-0.2-0.2-0.5-0.4-0.8-0.6c-0.3-0.1-0.6-0.2-1-0.2
			L109.3,25.4z"/>
		<path class="st1" d="M122.7,34.8c0.6,0,1.3-0.1,1.8-0.4c0.5-0.3,0.9-0.6,1.2-1.1c0.3-0.5,0.5-1,0.6-1.5c0.1-0.6,0.2-1.1,0.2-1.7
			V25h0.5v5.2c0,0.7-0.1,1.3-0.2,2c-0.1,0.6-0.4,1.2-0.7,1.7c-0.3,0.5-0.8,0.9-1.3,1.1c-0.6,0.3-1.3,0.5-2,0.4c-0.7,0-1.4-0.1-2-0.4
			c-0.5-0.3-1-0.7-1.3-1.2c-0.3-0.5-0.6-1.1-0.7-1.7c-0.1-0.6-0.2-1.3-0.2-1.9V25h0.5v5.2c0,0.6,0.1,1.2,0.2,1.7
			c0.1,0.5,0.3,1,0.6,1.5c0.3,0.4,0.7,0.8,1.2,1.1C121.5,34.7,122.1,34.9,122.7,34.8"/>
		<path class="st1" d="M139.6,35.2v-9.3l-4.3,7.3h-0.3l-4.3-7.3v9.3h-0.5V25h0.5l4.5,7.7l4.5-7.7h0.5v10.3H139.6z"/>
		<path class="st1" d="M150.2,34.8v0.5h-6.8V25h6.7v0.5h-6.2v4.3h5.4v0.5h-5.4v4.6H150.2z"/>
		<path class="st1" d="M153.3,25.9v9.3h-0.5V25h0.4l7.6,9.5V25h0.5v10.3h-0.5L153.3,25.9z"/>
		<path class="st1" d="M171.6,25.4h-3.9v9.8h-0.5v-9.8h-3.9V25h8.2V25.4z"/>
		<path class="st1" d="M179.7,26.5c-0.3-0.4-0.8-0.7-1.2-0.9c-0.5-0.2-1.1-0.3-1.6-0.3c-0.8-0.1-1.7,0.1-2.4,0.6
			c-0.5,0.4-0.8,1-0.7,1.7c0,0.3,0.1,0.6,0.2,0.9c0.1,0.2,0.3,0.5,0.6,0.6c0.3,0.2,0.6,0.3,1,0.4c0.4,0.1,0.9,0.2,1.4,0.3
			c0.6,0.1,1.1,0.2,1.5,0.4c0.4,0.1,0.8,0.3,1.2,0.5c0.3,0.2,0.6,0.5,0.7,0.8c0.2,0.4,0.3,0.7,0.3,1.1c0,0.4-0.1,0.8-0.3,1.1
			c-0.2,0.3-0.4,0.6-0.7,0.8c-0.3,0.2-0.7,0.4-1.2,0.5c-0.5,0.1-1,0.2-1.5,0.2c-0.8,0-1.5-0.1-2.2-0.4c-0.7-0.3-1.3-0.7-1.8-1.2
			l0.3-0.4c0.5,0.5,1,0.9,1.7,1.1c0.7,0.3,1.4,0.4,2.1,0.4c0.8,0,1.6-0.1,2.3-0.5c0.6-0.3,0.9-1,0.8-1.6c0-0.3-0.1-0.6-0.2-0.9
			c-0.1-0.3-0.4-0.5-0.6-0.7c-0.3-0.2-0.7-0.4-1-0.5c-0.4-0.1-0.9-0.3-1.5-0.4c-0.6-0.1-1.1-0.2-1.5-0.4c-0.4-0.1-0.7-0.3-1.1-0.5
			c-0.3-0.2-0.5-0.4-0.7-0.7c-0.2-0.3-0.2-0.7-0.2-1.1c0-0.4,0.1-0.8,0.3-1.2c0.2-0.3,0.4-0.7,0.7-0.9c0.3-0.3,0.7-0.4,1.1-0.5
			c0.5-0.1,1-0.2,1.5-0.2c0.6,0,1.2,0.1,1.8,0.3c0.5,0.2,1,0.5,1.4,0.9L179.7,26.5z"/>
	</g>
</g>
</svg>
